<?xml version="1.0" encoding="UTF-8"?> <svg xmlns="http://www.w3.org/2000/svg" id="Layer_1" data-name="Layer 1" viewBox="0 0 256 256"><defs><style>.cls-1{fill:#fff;}</style></defs><path class="cls-1" d="M128,256A128,128,0,1,1,256,128,128.14,128.14,0,0,1,128,256Zm0-237.45A109.45,109.45,0,1,0,237.45,128,109.58,109.58,0,0,0,128,18.55Z"></path><path class="cls-1" d="M116.16,120.59a24.63,24.63,0,0,1-4.42-3.18C107,112.9,105.6,107.3,106.42,101c1.16-8.9,7.5-15,16.45-16.69,6.34-1.22,12.68-1.07,18.68,1.63,7.47,3.35,11.21,9.31,11.52,17.43.29,7.46-3,13-9.28,16.8-.2.12-.38.26-.63.44a21.79,21.79,0,0,1,8.83,7.8c4.62,7.3,4.11,21.73-7.09,27.64-9.84,5.2-20.13,5.18-30,.2C102.54,150.07,101.74,133,110,125a24.69,24.69,0,0,1,2.92-2.48A23.68,23.68,0,0,1,116.16,120.59Zm3.23,15.77c0,3.68.62,6.23,2.54,8.32,2.78,3,7.84,4,12.08,2.4,3.57-1.36,5.78-4.81,5.87-9.21.06-3.28-.62-6.33-3.19-8.58-3.5-3-7.56-3.32-11.66-1.61A9,9,0,0,0,119.39,136.36Zm19-30.63a14,14,0,0,0-.38-3.92,7.94,7.94,0,0,0-7.42-6.25c-4.14-.33-7.34,1.39-8.71,4.91a12,12,0,0,0,.46,10.21c1.63,3.16,4.46,4.29,7.88,4.16a7.64,7.64,0,0,0,7.14-4.59A11.7,11.7,0,0,0,138.34,105.73Z"></path><path class="cls-1" d="M80.79,158.61H66.24V102.1l-17.36,5.38c-.3-.25-.19-.54-.19-.8,0-3.4,0-6.8,0-10.2,0-.61.07-1,.76-1.24Q64.15,90,78.82,84.71a4.76,4.76,0,0,1,2-.16Z"></path><path class="cls-1" d="M194.74,97.5v19.64h18.32v13.38h-18.3v20.66H180.81v-20.6H162.45V117.21h18.26V97.5Z"></path></svg> 