<?xml version="1.0" encoding="utf-8"?><svg id="_ActionScript3dddddddddddddddddddtext" image-rendering="auto" baseProfile="basic" version="1.1" x="0px" y="0px" width="132" height="63" xmlns="http://www.w3.org/2000/svg" xmlns:xlink="http://www.w3.org/1999/xlink"><g id="Scene-1" overflow="visible"><path fill="#1F2937" stroke="none" d="M-26 358.45L-26 245.45 -118 245.45 -118 358.45 -26 358.45Z"/><path fill="#1F2937" stroke="none" d="M157.8 -4.2L-22.8 -4.2 -22.8 71.05 157.8 71.05 157.8 -4.2Z"/><g id="crypto" transform="translate(72.45 19.2)"><path fill="#FFF" stroke="none" d="M9.35 1.85Q8.05 .1 5.25 .1 2.95 .1 1.45 1.55 0 2.9 0 5.15 0 7.35 1.45 8.7 2.95 10.05 5.25 10.05 7.7 10.05 9.35 8.3L7.7 6.7Q6.8 7.8 5.4 7.8 4.2 7.8 3.55 7.05 2.8 6.3 2.8 5.1 2.8 3.8 3.55 3.05 4.2 2.35 5.4 2.35 6.75 2.35 7.7 3.4L9.35 1.85M19.15 3.75Q19.15 2.15 18 1.2 16.8 .2 14.9 .2L10.55 .2 10.55 9.75 13.2 9.75 13.2 7.2 14.65 7.2 16.5 9.85 19.35 9.85 17.25 6.8Q19.15 5.85 19.15 3.75M16.05 2.8Q16.5 3.15 16.5 3.85 16.5 5.25 14.8 5.25L13.35 5.25 13.35 2.5 14.8 2.5Q15.6 2.45 16.05 2.8M25.6 6.3L29.35 .3 26.7 .3 24.45 4.05 22.15 .2 19.3 .2 22.9 6.3 22.9 9.75 25.6 9.75 25.6 6.3M38.55 3.85Q38.6 2.25 37.5 1.3 36.35 .3 34.35 .3L30 .3 30 9.85 32.65 9.85 32.65 7.4 34.35 7.4Q36.3 7.4 37.45 6.45 38.55 5.55 38.55 3.85M32.7 2.5L34.2 2.5Q35.8 2.5 35.8 3.85 35.8 5.25 34.2 5.25L32.7 5.25 32.7 2.5M41.7 2.5L41.7 9.85 44.35 9.85 44.35 2.5 47.35 2.5 47.35 .3 38.75 .3 38.75 2.5 41.7 2.5M58.4 5.05Q58.4 2.8 56.85 1.45 55.35 0 53.05 0 50.75 0 49.25 1.45 47.7 2.8 47.7 5.05 47.7 7.25 49.25 8.65 50.75 10.05 53.05 10.05 55.35 10.05 56.85 8.65 58.4 7.25 58.4 5.05M51.25 3Q51.95 2.3 53.05 2.3 54.15 2.3 54.9 3 55.6 3.8 55.6 5.05 55.6 6.25 54.9 7.05 54.15 7.8 53.05 7.8 51.9 7.8 51.2 7.05 50.5 6.25 50.5 5.05 50.5 3.8 51.25 3Z"/></g><g id="GAMES" transform="translate(72.5 35)"><path fill="#FFF" stroke="none" d="M9.35 4.95L7 4.95 7 7.5 6.75 7.5Q6 7.8 5.25 7.8 4.05 7.8 3.4 7.05 2.65 6.25 2.65 5.05 2.65 3.75 3.4 3 4.1 2.25 5.4 2.25 6.85 2.25 7.75 3.35L9.45 1.8Q7.95 0 5.3 0 2.95 0 1.45 1.45 0 2.8 0 5.05 0 7.25 1.5 8.65 3 10.05 5.3 10.05 7.7 10.05 9.35 8.85L9.35 4.95M16.55 .3L13.95 .3 9.7 9.85 12.5 9.85 13.3 8 17.3 8 17.95 9.85 20.85 9.85 16.55 .3M14 6L15.2 2.95 16.4 6 14 6M32.7 .3L30.45 .3 27.2 5.8 23.8 .3 21.5 .3 21.5 9.85 23.95 9.85 23.95 4.95 26.4 8.95 27.6 8.95 30.05 4.85 30.05 9.95 32.7 9.95 32.7 .3M42.05 2.4L42.05 .35 34.65 .35 34.65 9.9 42.3 9.9 42.3 7.85 37.25 7.8 37.25 6 41.5 6 41.5 3.95 37.25 3.95 37.25 2.4 42.05 2.4M48.75 4.25Q46.05 3.55 46.05 3.05 46.05 2.15 47.6 2.15 49.05 2.15 50.3 2.85L51.05 .9Q49.75 .1 47.6 .1 45.55 .1 44.4 1.05 43.4 1.9 43.4 3.25 43.4 5.25 46.1 6 48.8 6.7 48.8 7.2 48.8 8 47.25 8 45.55 8 44.1 7L43.2 8.95Q44.7 10.05 47.25 10.05 49.3 10.05 50.4 9.15 51.45 8.35 51.45 7 51.45 5 48.75 4.25Z"/></g><g id="cg" transform="translate(3.35 19.35)"><animateTransform attributeName="transform" additive="replace" type="translate" repeatCount="indefinite" dur="6s" keyTimes="0;.00699;.007;.01399;.014;.02099;.021;.02799;.028;.03499;.035;.04199;.042;.04899;.049;.05599;.056;.06299;.063;.06899;.069;.07599;.076;.08299;.083;.08999;.09;.09699;.097;.10399;.104;.11099;.111;.11799;.118;.12499;.125;.13199;.132;.13899;.139;.14599;.146;.15299;.153;.15999;.16;.16699;.167;.17399;.174;.18099;.181;.18799;.188;.19399;.194;.20099;.201;.20799;.208;.21499;.215;.22199;.222;.22899;.229;.23599;.236;.24299;.243;.24999;.25;1" values="32.85,31.15;32.85,31.15;32.9,31.2;32.9,31.2;32.947,31.203;32.947,31.203;32.941,31.317;32.941,31.317;32.937,31.302;32.937,31.302;32.932,31.223;32.932,31.223;32.902,31.25;32.902,31.25;32.934,31.244;32.934,31.244;32.914,31.259;32.914,31.259;32.848,31.241;32.848,31.241;32.902,31.275;32.902,31.275;32.916,31.291;32.916,31.291;32.911,31.235;32.911,31.235;32.843,31.265;32.843,31.265;32.803,31.307;32.803,31.307;32.843,31.275;32.843,31.275;32.801,31.243;32.801,31.243;32.784,31.085;32.784,31.085;32.8,31.1;32.8,31.1;32.826,31.097;32.826,31.097;32.935,31.045;32.935,31.045;32.944,31.13;32.944,31.13;32.966,31.144;32.966,31.144;32.926,31.148;32.926,31.148;32.856,31.195;32.856,31.195;32.926,31.257;32.926,31.257;32.966,31.165;32.966,31.165;32.925,31.259;32.925,31.259;32.868,31.207;32.868,31.207;33.005,31.238;33.005,31.238;32.954,31.279;32.954,31.279;33.003,31.271;33.003,31.271;33.01,31.246;33.01,31.246;33.006,31.18;33.006,31.18;32.95,31.245;32.95,31.245;32.949,31.249;32.949,31.249;32.85,31.15;32.85,31.15" calcMode="discrete"/><animateTransform attributeName="transform" additive="sum" type="rotate" repeatCount="indefinite" dur="6s" keyTimes="0;.01399;.014;.02099;.021;.02799;.028;.03499;.035;.04199;.042;.04899;.049;.05599;.056;.06299;.063;.06899;.069;.07599;.076;.08299;.083;.08999;.09;.09699;.097;.10399;.104;.11099;.111;.11799;.118;.12499;.125;.13199;.132;.13899;.139;.14599;.146;.15299;.153;.15999;.16;.16699;.167;.17399;.174;.18099;.181;.18799;.188;.19399;.194;.20099;.201;.20799;.208;.21499;.215;.22199;.222;.22899;.229;.23599;.236;.24299;.243;.24999;.25;1" values="0,0,0;0,0,0;.021,0,0;.021,0,0;.136,0,0;.136,0,0;.433,0,0;.433,0,0;1.07,0,0;1.07,0,0;2.218,0,0;2.218,0,0;4.113,0,0;4.113,0,0;7.019,0,0;7.019,0,0;11.249,0,0;11.249,0,0;17.144,0,0;17.144,0,0;25.103,0,0;25.103,0,0;35.552,0,0;35.552,0,0;48.971,0,0;48.971,0,0;65.869,0,0;65.869,0,0;86.804,0,0;86.804,0,0;112.368,0,0;112.368,0,0;143.207,0,0;143.207,0,0;180,0,0;180,0,0;-143.212,0,0;-143.212,0,0;-112.372,0,0;-112.372,0,0;-86.81,0,0;-86.81,0,0;-65.875,0,0;-65.875,0,0;-48.977,0,0;-48.977,0,0;-35.557,0,0;-35.557,0,0;-25.108,0,0;-25.108,0,0;-17.148,0,0;-17.148,0,0;-11.249,0,0;-11.249,0,0;-7.025,0,0;-7.025,0,0;-4.119,0,0;-4.119,0,0;-2.224,0,0;-2.224,0,0;-1.075,0,0;-1.075,0,0;-.438,0,0;-.438,0,0;-.142,0,0;-.142,0,0;-.026,0,0;-.026,0,0;-.004,0,0;-.004,0,0;0,0,0;0,0,0" calcMode="discrete"/><animateTransform attributeName="transform" additive="sum" type="scale" repeatCount="indefinite" dur="6s" keyTimes="0;.06299;.063;.08299;.083;.09699;.097;.10399;.104;.11099;.111;.11799;.118;.12499;.125;.13199;.132;.13899;.139;.14599;.146;.15299;.153;.15999;.16;.17399;.174;.19399;.194;1" values="1,1;1,1;1,.999;1,.999;.998,.998;.998,.998;1,.999;1,.999;1,1;1,1;1,.999;1,.999;.998,.998;.998,.998;1,1;1,1;.998,.998;.998,.998;1,.999;1,.999;1,1;1,1;1,.999;1,.999;.998,.998;.998,.998;1,.999;1,.999;1,1;1,1" calcMode="discrete"/><animateTransform attributeName="transform" additive="sum" type="translate" repeatCount="indefinite" dur="6s" keyTimes="0;.01399;.014;.02099;.021;.02799;.028;.03499;.035;.04199;.042;.04899;.049;.06899;.069;.07599;.076;.08299;.083;.08999;.09;.09699;.097;.10399;.104;.11099;.111;.11799;.118;.12499;.125;.13199;.132;.13899;.139;.14599;.146;.15299;.153;.15999;.16;.16699;.167;.17399;.174;.18099;.181;.18799;.188;.19399;.194;.20099;.201;.22199;.222;.22899;.229;.23599;.236;.24999;.25;1" values="-29.5,-11.8;-29.5,-11.8;-29.55,-11.85;-29.55,-11.85;-29.55,-11.95;-29.55,-11.95;-29.55,-11.9;-29.55,-11.9;-29.6,-11.85;-29.6,-11.85;-29.55,-11.85;-29.55,-11.85;-29.55,-11.9;-29.55,-11.9;-29.55,-11.85;-29.55,-11.85;-29.6,-11.85;-29.6,-11.85;-29.6,-11.75;-29.6,-11.75;-29.6,-11.8;-29.6,-11.8;-29.5,-11.8;-29.5,-11.8;-29.6,-11.7;-29.6,-11.7;-29.5,-11.65;-29.5,-11.65;-29.45,-11.75;-29.45,-11.75;-29.5,-11.8;-29.5,-11.8;-29.35,-11.75;-29.35,-11.75;-29.45,-11.85;-29.45,-11.85;-29.4,-11.9;-29.4,-11.9;-29.5,-11.9;-29.5,-11.9;-29.45,-11.9;-29.45,-11.9;-29.4,-11.85;-29.4,-11.85;-29.45,-11.9;-29.45,-11.9;-29.55,-11.75;-29.55,-11.75;-29.5,-11.95;-29.5,-11.95;-29.5,-11.9;-29.5,-11.9;-29.6,-11.9;-29.6,-11.9;-29.6,-11.85;-29.6,-11.85;-29.65,-11.8;-29.65,-11.8;-29.6,-11.85;-29.6,-11.85;-29.5,-11.8;-29.5,-11.8" calcMode="discrete"/><path fill="#9E00B8" stroke="none" d="M28.45 1.45Q28.35 1.35 28.05 1.35L17.2 1.35Q16.9 1.35 16.75 1.15 14.7 -.25 12.5 .05 10.2 .2 8.55 1.8L1.65 8.3Q0 9.85 0 12.15 -.15 14.4 1.4 16.1L10.4 26.2Q11.1 27.1 12.45 27.3 13.7 27.45 14.7 26.7L17.45 24.85Q18.65 23.95 20.2 23.95L26.15 23.95Q26.2 23.95 26.6 23.75 26.9 23.45 26.9 23.35L30.65 14.8Q30.75 14.7 30.75 14.4L30.65 14 30.35 13.75Q30.25 13.65 29.95 13.65L27.45 13.65 26.95 13.75Q26.65 13.75 26.65 14.1L24.4 18.95 24.1 19.35Q24 19.45 23.6 19.45L11.3 19.45Q11 19.45 10.45 19.25 10.3 19.2 9.75 18.65L5.9 13.35Q5.5 12.8 5.5 12.15 5.5 11.45 6 10.95L10.05 6.55Q10.45 6.15 10.7 6.05 11.3 5.85 11.5 5.85L26.75 5.85Q26.85 5.85 27.25 5.65 27.55 5.35 27.55 5.25L28.75 2.5Q28.85 2.4 28.85 2.1 28.75 1.8 28.75 1.7L28.45 1.45Z"/><path fill="#FFF" stroke="none" d="M58.2 8.35L51.3 1.75Q49.8 .15 47.4 0 45.1 -.15 43.2 1.1L42.7 1.3 32.15 1.3Q31.85 1.3 31.65 1.5 31.6 1.55 31.4 1.85L28.3 8.95Q28.2 9.05 28.2 9.35 28.2 9.6 28.45 9.75L28.7 10.05Q28.75 10.1 29.2 10.1L31.95 10.1Q32.35 10.1 32.4 9.9 32.7 9.75 32.7 9.5L33.7 6.95Q33.85 6.45 34.4 6.05 34.85 5.75 35.45 5.75L48.25 5.75Q48.65 5.75 49.05 5.95 49.45 6.15 49.75 6.45L53.8 10.85Q54.25 11.35 54.25 12.1 54.25 12.9 53.9 13.3L50.05 18.6Q49.75 19.05 49.35 19.2 48.75 19.4 48.45 19.4L36.85 19.4Q36.65 19.4 36.65 19.3L36.45 19.1 36.35 18.9 36.35 18.6 36.65 17.8Q36.65 17.7 36.85 17.5 36.95 17.4 37.15 17.4L39 17.4Q39.1 17.4 39.5 17.2 39.8 17.1 39.8 16.85L40.8 14.45Q40.9 14.35 40.9 14.05L40.8 13.7 40.5 13.4Q40.45 13.3 40.1 13.3L34.9 13.3Q34.6 13.3 34.4 13.5L34.25 13.65Q34.1 13.8 34.1 13.85L30.55 22.55Q30.4 22.9 30.4 23.15L30.5 23.6 30.75 23.9 31.15 23.95 39.65 23.95Q41.3 23.95 42.4 24.9L45.15 26.75Q46.2 27.5 47.4 27.35 48.5 27.2 49.45 26.25L58.5 16.15Q60.05 14.45 59.95 12.2 59.8 10.1 58.2 8.35Z"/></g></g></svg>
