<svg xmlns="http://www.w3.org/2000/svg" xmlns:xlink="http://www.w3.org/1999/xlink" width="200" height="38"><defs><linearGradient id="A" x1=".5" y1=".992" x2=".5" y2="-.013"><stop offset="0" stop-color="#040237"/><stop offset=".052" stop-color="#04066f"/><stop offset=".142" stop-color="#020b44"/><stop offset=".214" stop-color="#020731"/><stop offset=".31" stop-color="#02031f"/><stop offset=".412" stop-color="#020114"/><stop offset=".527" stop-color="#020011"/><stop offset=".63" stop-color="#020045"/><stop offset=".728" stop-color="#05144a"/><stop offset=".731" stop-color="#042264"/><stop offset=".736" stop-color="#033588"/><stop offset=".742" stop-color="#0247a8"/><stop offset=".748" stop-color="#0255c4"/><stop offset=".756" stop-color="#0161da"/><stop offset=".764" stop-color="#016aeb"/><stop offset=".774" stop-color="#0070f6"/><stop offset=".788" stop-color="#0074fd"/><stop offset=".828" stop-color="#0075ff"/><stop offset=".931" stop-color="#1107ff"/><stop offset=".988" stop-color="#46aeff"/></linearGradient><linearGradient id="B" x1=".5" y1=".956" x2=".5" y2=".082"><stop offset="0" stop-color="#920000"/><stop offset="1" stop-color="#e50914"/></linearGradient><linearGradient id="C" x1=".194" y1="3.609" x2=".955" y2="3.629"><stop offset=".739" stop-color="#341111" stop-opacity="0"/><stop offset=".985" stop-color="#341111"/></linearGradient><linearGradient id="D" x1=".5" y1="1.211" x2=".5" y2="-.366"><stop offset="0" stop-color="#040237"/><stop offset=".052" stop-color="#04066f"/><stop offset=".142" stop-color="#020b44"/><stop offset=".214" stop-color="#020731"/><stop offset=".31" stop-color="#02031f"/><stop offset=".412" stop-color="#020114"/><stop offset=".527" stop-color="#020011"/><stop offset=".63" stop-color="#020045"/><stop offset=".728" stop-color="#05144a"/><stop offset=".731" stop-color="#042264"/><stop offset=".736" stop-color="#033588"/><stop offset=".742" stop-color="#0247a8"/><stop offset=".748" stop-color="#0255c4"/><stop offset=".756" stop-color="#0161da"/><stop offset=".764" stop-color="#016aeb"/><stop offset=".774" stop-color="#0070f6"/><stop offset=".788" stop-color="#0074fd"/><stop offset=".828" stop-color="#0075ff"/><stop offset=".892" stop-color="#1107ff"/><stop offset=".988" stop-color="#46aeff"/></linearGradient><linearGradient id="E" y1="1.105" y2="-.34" xlink:href="#D"/><linearGradient id="F" x1=".499" y1="1.176" x2=".499" y2="-.336" xlink:href="#D"/><linearGradient id="G" y1="1.25" y2="-.356" xlink:href="#D"/><linearGradient id="H" y1="1.109" y2="-.323" xlink:href="#D"/><linearGradient id="I" y1="1.222" y2="-.355" xlink:href="#D"/><linearGradient id="J" y1="1.175" y2="-.332" xlink:href="#D"/><linearGradient id="K" x1=".501" y1="1.272" x2=".501" y2="-.379" xlink:href="#D"/><linearGradient id="L" x1=".5" y1="1" x2=".5"><stop offset="0" stop-color="#920000"/><stop offset=".228" stop-color="#ad0306"/><stop offset=".544" stop-color="#cb060e"/><stop offset=".812" stop-color="#de0812"/><stop offset="1" stop-color="#e50914"/></linearGradient><linearGradient id="M" x1=".523" y1="1.005" x2=".475" y2="-.045" xlink:href="#D"/><linearGradient id="N" y2="0" xlink:href="#L"/><clipPath id="O"><path d="M0 0h200v38H0z"/></clipPath></defs><g clip-path="url(#O)"><path d="M38.651 13.015c-.12-2.841-.808-5.629-2.023-8.2l-1.88-1.459s-10.6-2-16.657-1.658a37.44 37.44 0 0 0-12.323 3.12c-1.215 2.571-1.903 5.359-2.023 8.2A22.49 22.49 0 0 0 7.27 26.085c3.12 4.569 11.187 11.54 11.187 11.54l2.741-.366a30.81 30.81 0 0 0 13.929-11.19c2.49-3.885 3.72-8.444 3.524-13.054zM26.524 5.522l-5.94 10.3h-1.192V5.105c.6-.039 1.2-.065 1.815-.065a33.38 33.38 0 0 1 5.317.482zm-15.9 18.824C7.389 19.281 6.731 12.987 8.849 7.363c1.572-.554 3.175-1.016 4.8-1.384v22.049a28.01 28.01 0 0 1-3.025-3.682zm10.574 9.125c-.509-.248-1.123-.574-1.815-.979V20.956h1.593l5.316 9.265a27.76 27.76 0 0 1-2.363 1.7 24.25 24.25 0 0 1-2.731 1.55zm10.574-9.125q-.47.685-.979 1.332l-.418-.666-4.765-7.624 6.188-8.942.94-1.358q.45.157.822.274a19.72 19.72 0 0 1 1.2 5.8c.151 3.944-.891 7.841-2.988 11.184z" fill="url(#A)"/><path d="M36.889 12.023a22.48 22.48 0 0 0-2.141-8.655A47.12 47.12 0 0 0 18.456.013 47.24 47.24 0 0 0 2.152 3.368a22.52 22.52 0 0 0-2.128 8.655c-.206 4.873 1.093 9.691 3.72 13.8a32.56 32.56 0 0 0 14.712 11.812 32.56 32.56 0 0 0 14.712-11.814 23.68 23.68 0 0 0 3.721-13.798zm-12.807-7.91l-6.279 10.873H16.55V3.668a30.76 30.76 0 0 1 1.906-.065 34.02 34.02 0 0 1 5.626.51zM7.295 23.98a20.55 20.55 0 0 1-3.146-11.814c.107-2.093.534-4.158 1.266-6.122a47.62 47.62 0 0 1 5.078-1.462v23.275a27.56 27.56 0 0 1-3.198-3.877zm11.161 9.647c-.535-.261-1.188-.6-1.906-1.031V20.404h1.684l5.613 9.791c-.8.64-1.632 1.24-2.493 1.8-.936.595-1.904 1.14-2.898 1.632zm11.161-9.647c-.326.483-.666.953-1.031 1.41l-.444-.7-5.039-8.041 6.527-9.438.992-1.436.862.287c.732 1.964 1.159 4.029 1.266 6.122a20.4 20.4 0 0 1-3.133 11.796z" fill="url(#B)"/><path d="M36.889 12.01a22.48 22.48 0 0 0-2.141-8.655A47.12 47.12 0 0 0 18.456 0 47.24 47.24 0 0 0 2.152 3.355 22.52 22.52 0 0 0 .024 12.01c-.206 4.873 1.093 9.691 3.72 13.8a32.56 32.56 0 0 0 14.712 11.812 32.56 32.56 0 0 0 14.712-11.814 23.68 23.68 0 0 0 3.721-13.798zM24.082 4.1l-6.279 10.873H16.55V3.655a30.76 30.76 0 0 1 1.906-.065 34.02 34.02 0 0 1 5.626.51zM7.295 23.967c-2.224-3.527-3.322-7.648-3.146-11.814.107-2.093.534-4.158 1.266-6.122 1.66-.581 3.352-1.069 5.067-1.462v23.275a28.43 28.43 0 0 1-3.187-3.877zm11.161 9.647c-.535-.261-1.188-.6-1.906-1.031V20.391h1.684l5.613 9.791c-.8.64-1.632 1.24-2.493 1.8-.936.595-1.904 1.14-2.898 1.632zm11.161-9.647c-.326.483-.666.953-1.031 1.41l-.444-.7-5.039-8.041 6.527-9.438.992-1.436.862.287a19.9 19.9 0 0 1 1.279 6.109 20.53 20.53 0 0 1-3.146 11.809z" fill="url(#C)"/><path d="M85.082 8.55a8.12 8.12 0 0 0-5.561-1.788q-4.014.02-8 .065-.02 10.045-.039 20.1l3.42-.117.287.548 1.044-.6.013-7.023 3.172-.078c2.046.07 4.054-.56 5.692-1.788a5.74 5.74 0 0 0 2.063-4.608 5.99 5.99 0 0 0-2.091-4.711zm-3.472 6.984a2.87 2.87 0 0 1-2.1.783l-3.263.065.013-6.227 3.316-.039a2.6 2.6 0 0 1 2.036.875 3.43 3.43 0 0 1 .757 2.35c.044.802-.228 1.589-.757 2.193z" fill="url(#D)"/><path d="M51.078 13.38c.113-1.761-.601-3.475-1.932-4.634a6.8 6.8 0 0 0-3.172-1.384h0l-2.9-.5.3.313-7.31.131q-.02 10.868-.039 21.722l1.671-.131.1.457 2.963-.7.013-7.832 2.35-.117q1.762 3.8 3.525 7.545l2.48-.157.261.483 2.363-.653v-.2l-4.1-8.368a6.27 6.27 0 0 0 3.427-5.975zm-5.457 2.794a2.73 2.73 0 0 1-2.128.94l-2.689.117.013-6.4 2.781-.078c1.828-.039 2.741.992 2.741 3.107a3.59 3.59 0 0 1-.717 2.314z" fill="url(#E)"/><path d="M148.75 6.944l-.17-.509-2.715.47q.02 10.2.039 20.4l2.715.627 2.036-.379q-.02-10.3-.039-20.586l-1.866-.023z" fill="url(#F)"/><path d="M122.093 8.693c-1.671-1.562-3.903-2.381-6.188-2.271-2.299-.147-4.556.671-6.227 2.258-1.575 1.714-2.385 3.995-2.245 6.318v3.355c-.111 2.255.722 4.455 2.3 6.07a8.81 8.81 0 0 0 6.227 2.232 8.39 8.39 0 0 0 6.214-2.089c1.568-1.644 2.377-3.868 2.232-6.135v-3.38a8.69 8.69 0 0 0-2.313-6.358zm-3.381 13.485a3.2 3.2 0 0 1-2.767 1.162 3.37 3.37 0 0 1-2.846-1.253 6.38 6.38 0 0 1-.927-3.812v-3.5c-.072-1.332.256-2.655.94-3.8a3.21 3.21 0 0 1 2.794-1.24 3.18 3.18 0 0 1 2.807 1.318 7.17 7.17 0 0 1 .914 3.982v3.433a6.08 6.08 0 0 1-.915 3.71z" fill="url(#G)"/><path d="M169.976 28.823l1.083.078q-.02-10.809-.039-21.631c-.3 0-.6-.013-.888-.013l-.026-.522-3.808.458.026 14.02q-3.485-7.206-6.984-14.125l-1.553-.026v-.509l-3.185.47q.02 10.378.039 20.756l3.185.653v-.457l1.553.091-.026-13.759q3.485 6.99 6.971 14.242l3.825.692-.209-.444h.026z" fill="url(#H)"/><path d="M141.609 9.594c-.634-.986-1.541-1.766-2.611-2.245a10.05 10.05 0 0 0-9.216.679 4.68 4.68 0 0 0-2.1 4.021c-.004 1.367.557 2.676 1.55 3.615a13.37 13.37 0 0 0 5.091 2.767 9.24 9.24 0 0 1 2.676 1.371 2.4 2.4 0 0 1 .744 1.88c0 1.5-.822 2.219-2.48 2.167a3.7 3.7 0 0 1-2.585-.862c-.468-.527-.736-1.202-.757-1.906l1.932-.379-1.956-.261-4.765-.1a5.9 5.9 0 0 0 1.057 3.5c.749 1.034 1.764 1.846 2.937 2.35 1.311.575 2.72.894 4.151.94 1.864.179 3.734-.271 5.313-1.279 1.3-.932 2.034-2.463 1.945-4.06a5.48 5.48 0 0 0-1.566-4.008c-1.43-1.289-3.142-2.224-5-2.728a9.45 9.45 0 0 1-2.737-1.441 1.98 1.98 0 0 1-.783-1.5 2.13 2.13 0 0 1 .683-1.674c.545-.437 1.235-.651 1.932-.6.753-.042 1.489.238 2.023.77a3.04 3.04 0 0 1 .7 2.154l4.726.091 2.532-.157-2.572-.548a5.7 5.7 0 0 0-.864-2.557z" fill="url(#I)"/><path d="M67.527 6.866l-3.316.039-3.551 9.242q-1.762-4.543-3.538-9.151l-2.076-.47.144.5-3.237.036q3.153 6.6 6.292 13.028l-.013 7.467 2.859-.144.2.522 1.762-.627.013-7.389q3.153-6.6 6.318-13.054l-1.41-.483z" fill="url(#J)"/><path d="M105.553 9.346V6.683q-8.146 0-16.292.026v2.937l-.339.078.339.313 5.718-.026q0 8.165-.013 16.344l4.765-.039V9.983h5.809l.535-.313-.522-.326z" fill="url(#K)"/><path d="M40.309 20.977l-2.48.131-.013 8.263-5 .392q.02-11.455.039-22.9l7.976-.144a8.64 8.64 0 0 1 5.809 1.645 5.92 5.92 0 0 1 2.036 4.882 6.61 6.61 0 0 1-3.6 6.305l4.321 8.812v.209l-5.378.352-3.71-7.947zm-2.467-3.668l2.846-.117a2.89 2.89 0 0 0 2.245-.992 3.75 3.75 0 0 0 .757-2.428c0-2.232-.966-3.329-2.9-3.277l-2.924.078-.024 6.736zm20.926-1.149l3.747-9.738 5.444-.052q-3.329 6.814-6.658 13.759l-.013 7.793-5.078.261.013-7.872q-3.309-6.775-6.618-13.733l5.444-.078 3.719 9.66zm16.435 3.786l-.013 7.4-5.013.183q.02-10.593.039-21.187l8.446-.065a8.55 8.55 0 0 1 5.861 1.88c1.444 1.236 2.246 3.062 2.18 4.961a6.02 6.02 0 0 1-2.167 4.869 9.44 9.44 0 0 1-5.992 1.893l-3.341.066zm0-3.538l3.433-.065c.821.038 1.622-.258 2.219-.822.559-.635.84-1.467.783-2.311a3.63 3.63 0 0 0-.8-2.48 2.7 2.7 0 0 0-2.141-.914l-3.485.039-.009 6.553zm30.9-6.736h-6.122v17.206l-5.026.039q0-8.616.013-17.231l-6.031.026v-3.5q8.6-.039 17.179-.026l-.014 3.486zm19.855 8.89a8.6 8.6 0 0 1-2.35 6.475 8.86 8.86 0 0 1-6.553 2.206 9.24 9.24 0 0 1-6.566-2.35 8.5 8.5 0 0 1-2.415-6.4v-3.534a9.04 9.04 0 0 1 2.363-6.658 8.78 8.78 0 0 1 6.566-2.376 8.93 8.93 0 0 1 6.527 2.389c1.676 1.805 2.551 4.211 2.428 6.671zm-5.026-3.564c.099-1.46-.232-2.917-.953-4.19-.734-.864-1.806-1.369-2.939-1.384s-2.218.461-2.975 1.306a6.86 6.86 0 0 0-.979 3.995v3.681c-.108 1.406.235 2.81.979 4.008.727.9 1.845 1.391 3 1.318a3.38 3.38 0 0 0 2.911-1.227 6.5 6.5 0 0 0 .966-3.9l-.011-3.606zm19.1 7a2.5 2.5 0 0 0-.783-1.984 9.73 9.73 0 0 0-2.82-1.449 14.03 14.03 0 0 1-5.365-2.924c-1.05-.991-1.646-2.37-1.648-3.814a4.93 4.93 0 0 1 2.219-4.23 9.35 9.35 0 0 1 5.639-1.566 9.71 9.71 0 0 1 4.073.862c2.3 1.007 3.767 3.299 3.72 5.809l-4.987-.091c.057-.825-.21-1.64-.744-2.271a2.86 2.86 0 0 0-2.139-.813 2.83 2.83 0 0 0-2.036.64 2.25 2.25 0 0 0-.731 1.762 2.07 2.07 0 0 0 .822 1.58 10.21 10.21 0 0 0 2.9 1.514 13.08 13.08 0 0 1 5.274 2.885 5.81 5.81 0 0 1 1.645 4.23c.093 1.68-.68 3.291-2.049 4.269-1.665 1.06-3.636 1.533-5.6 1.345a11.55 11.55 0 0 1-4.373-.992 7.45 7.45 0 0 1-3.094-2.48 6.25 6.25 0 0 1-1.123-3.694l5.026.117a3.64 3.64 0 0 0 .835 2.663 3.97 3.97 0 0 0 2.728.914c1.734.052 2.609-.705 2.609-2.284zm13.589 6.2l-5-.261q-.02-10.75-.039-21.5l5 .065q.017 10.846.034 21.694zm21.526 1.423l-5-.379-7.336-15.012.026 14.5-5-.313q-.02-10.946-.039-21.879l5 .065q3.681 7.323 7.363 14.895l-.026-14.777 4.987.091q-.006 11.415.023 22.807z" fill="url(#L)"/><path d="M192.363 6.71a8.38 8.38 0 0 0-5.261-2.911l.379-.7-4.243.7h.013c-2.035.28-3.905 1.275-5.274 2.807-1.736 1.958-2.6 4.66-2.585 8.146l.013 4.347c-.121 2.915.826 5.774 2.663 8.041a10.26 10.26 0 0 0 6.475 3.394h0l5.966.888-.3-1.449a7.05 7.05 0 0 0 2.232-1.606c1.723-1.828 2.585-4.608 2.585-8.263v-4.66c-.026-3.734-.914-6.671-2.663-8.734zm-10.4 17.623c-.811-1.564-1.181-3.32-1.07-5.078v-4.6a9.49 9.49 0 0 1 1.083-4.974c.7-1.09 1.946-1.703 3.237-1.593a3.56 3.56 0 0 1 3.25 1.8c.805 1.678 1.164 3.534 1.044 5.391v4.634a9.16 9.16 0 0 1-1.057 4.948 3.25 3.25 0 0 1-3.2 1.345c-1.339-.044-2.57-.745-3.291-1.873z" fill="url(#M)"/><path d="M197.196 6.148c-1.884-2.189-4.674-3.384-7.558-3.237a9.65 9.65 0 0 0-7.611 3.12c-1.828 2.063-2.728 4.908-2.728 8.59l.013 4.582c-.128 3.072.87 6.084 2.807 8.472 1.94 2.183 4.668 3.507 7.584 3.681 3.224.313 5.744-.457 7.571-2.389s2.728-4.856 2.728-8.707v-4.908c-.042-3.941-.968-7.041-2.806-9.204zm-4.125 19.124a3.44 3.44 0 0 1-3.368 1.423 4.27 4.27 0 0 1-3.472-1.971 10.33 10.33 0 0 1-1.136-5.352v-4.843a10.13 10.13 0 0 1 1.136-5.248 3.67 3.67 0 0 1 3.407-1.684 3.78 3.78 0 0 1 3.433 1.906 11.39 11.39 0 0 1 1.109 5.679v4.882c-.016 2.389-.384 4.138-1.112 5.209z" fill="url(#N)"/><path d="M192.363 6.71a8.38 8.38 0 0 0-5.261-2.911l.379-.7-4.243.7h.013c-2.035.28-3.905 1.275-5.274 2.807-1.736 1.958-2.6 4.66-2.585 8.146l.013 4.347c-.121 2.915.826 5.774 2.663 8.041a10.26 10.26 0 0 0 6.475 3.394h0l5.966.888-.3-1.449a7.05 7.05 0 0 0 2.232-1.606c1.723-1.828 2.585-4.608 2.585-8.263v-4.66c-.026-3.734-.914-6.671-2.663-8.734zm-10.4 17.623c-.811-1.564-1.181-3.32-1.07-5.078v-4.6a9.49 9.49 0 0 1 1.083-4.974c.7-1.09 1.946-1.703 3.237-1.593a3.56 3.56 0 0 1 3.25 1.8c.805 1.678 1.164 3.534 1.044 5.391v4.634a9.16 9.16 0 0 1-1.057 4.948 3.25 3.25 0 0 1-3.2 1.345c-1.339-.044-2.57-.745-3.291-1.873z" fill="url(#M)"/><path d="M197.196 6.148c-1.884-2.189-4.674-3.384-7.558-3.237a9.65 9.65 0 0 0-7.611 3.12c-1.828 2.063-2.728 4.908-2.728 8.59l.013 4.582c-.128 3.072.87 6.084 2.807 8.472 1.94 2.183 4.668 3.507 7.584 3.681 3.224.313 5.744-.457 7.571-2.389s2.728-4.856 2.728-8.707v-4.908c-.042-3.941-.968-7.041-2.806-9.204zm-4.125 19.124a3.44 3.44 0 0 1-3.368 1.423 4.27 4.27 0 0 1-3.472-1.971 10.33 10.33 0 0 1-1.136-5.352v-4.843a10.13 10.13 0 0 1 1.136-5.248 3.67 3.67 0 0 1 3.407-1.684 3.78 3.78 0 0 1 3.433 1.906 11.39 11.39 0 0 1 1.109 5.679v4.882c-.016 2.389-.384 4.138-1.112 5.209z" fill="url(#N)"/></g></svg>
