<svg width="179" height="28" viewBox="0 0 179 28" fill="none" xmlns="http://www.w3.org/2000/svg">
<path d="M17.5093 17.6486C16.7531 17.2103 15.9001 17.0839 15.055 17.0563C14.3462 17.0326 13.2898 16.5784 13.2898 15.2792C13.2939 14.8112 13.4808 14.3634 13.8106 14.0313C14.1404 13.6993 14.587 13.5094 15.055 13.5022C15.9001 13.4726 16.7531 13.3462 17.5093 12.9098C18.1883 12.5166 18.7519 11.9517 19.1436 11.2718C19.5352 10.5919 19.7411 9.82092 19.7405 9.03628C19.7399 8.25164 19.5329 7.48096 19.1402 6.80163C18.7476 6.1223 18.1831 5.55823 17.5035 5.16606C16.8239 4.77389 16.0531 4.56742 15.2685 4.56738C14.4838 4.56735 13.713 4.77375 13.0333 5.16586C12.3537 5.55797 11.7892 6.12198 11.3965 6.80128C11.0038 7.48057 10.7967 8.25123 10.796 9.03587C10.796 9.90267 11.104 10.7004 11.4989 11.4408C11.8287 12.0628 11.9965 13.2179 10.8612 13.8714C10.4508 14.0997 9.96731 14.1582 9.51439 14.0341C9.06147 13.9101 8.67519 13.6135 8.43843 13.208C7.99417 12.4972 7.45118 11.8258 6.7068 11.3974C6.02691 11.0052 5.25578 10.7989 4.47089 10.7991C3.686 10.7993 2.91499 11.0061 2.23534 11.3987C1.55568 11.7913 0.991319 12.3558 0.598942 13.0356C0.206566 13.7154 0 14.4864 0 15.2713C0 16.0562 0.206566 16.8273 0.598942 17.5071C0.991319 18.1868 1.55568 18.7514 2.23534 19.1439C2.91499 19.5365 3.686 19.7433 4.47089 19.7436C5.25578 19.7438 6.02691 19.5375 6.7068 19.1453C7.45711 18.7109 7.99417 18.0455 8.43843 17.3347C8.80371 16.7423 9.71396 16.0078 10.8612 16.6712C11.2641 16.9126 11.5564 17.3023 11.6753 17.7568C11.7941 18.2112 11.7301 18.6941 11.497 19.1018C11.1021 19.8423 10.796 20.64 10.796 21.5068C10.7961 22.2921 11.0028 23.0635 11.3954 23.7436C11.7881 24.4236 12.3528 24.9884 13.0328 25.3811C13.7129 25.7738 14.4843 25.9806 15.2696 25.9807C16.0549 25.9808 16.8263 25.7742 17.5065 25.3817C18.1866 24.9892 18.7515 24.4247 19.1444 23.7447C19.5372 23.0647 19.7441 22.2934 19.7444 21.5081C19.7447 20.7228 19.5383 19.9513 19.146 19.2711C18.7536 18.5908 18.1892 18.0258 17.5093 17.6328V17.6486Z" fill="#008CFF"/>
<path d="M29.689 12.0859V22H26.314V9.32031H29.4897L29.689 12.0859ZM33.5093 9.23828L33.4507 12.3672C33.2866 12.3438 33.0874 12.3242 32.853 12.3086C32.6265 12.2852 32.4194 12.2734 32.2319 12.2734C31.7554 12.2734 31.3413 12.3359 30.9897 12.4609C30.646 12.5781 30.3569 12.7539 30.1226 12.9883C29.896 13.2227 29.7241 13.5078 29.6069 13.8438C29.4976 14.1797 29.4351 14.5625 29.4194 14.9922L28.7397 14.7812C28.7397 13.9609 28.8218 13.207 28.9858 12.5195C29.1499 11.8242 29.3882 11.2188 29.7007 10.7031C30.021 10.1875 30.4116 9.78906 30.8726 9.50781C31.3335 9.22656 31.8608 9.08594 32.4546 9.08594C32.6421 9.08594 32.8335 9.10156 33.0288 9.13281C33.2241 9.15625 33.3843 9.19141 33.5093 9.23828ZM39.8655 9.32031V22H36.4788V9.32031H39.8655ZM36.2679 6.01562C36.2679 5.52344 36.4397 5.11719 36.7835 4.79688C37.1272 4.47656 37.5882 4.31641 38.1663 4.31641C38.7366 4.31641 39.1937 4.47656 39.5374 4.79688C39.889 5.11719 40.0647 5.52344 40.0647 6.01562C40.0647 6.50781 39.889 6.91406 39.5374 7.23438C39.1937 7.55469 38.7366 7.71484 38.1663 7.71484C37.5882 7.71484 37.1272 7.55469 36.7835 7.23438C36.4397 6.91406 36.2679 6.50781 36.2679 6.01562ZM47.2296 11.7578V26.875H43.8546V9.32031H46.9835L47.2296 11.7578ZM55.2569 15.5195V15.7656C55.2569 16.6875 55.1476 17.543 54.9288 18.332C54.7179 19.1211 54.4054 19.8086 53.9913 20.3945C53.5772 20.9727 53.0616 21.4258 52.4444 21.7539C51.8351 22.0742 51.1319 22.2344 50.3351 22.2344C49.5616 22.2344 48.8897 22.0781 48.3194 21.7656C47.7491 21.4531 47.2687 21.0156 46.878 20.4531C46.4952 19.8828 46.1866 19.2227 45.9522 18.4727C45.7179 17.7227 45.5382 16.918 45.4132 16.0586V15.4141C45.5382 14.4922 45.7179 13.6484 45.9522 12.8828C46.1866 12.1094 46.4952 11.4414 46.878 10.8789C47.2687 10.3086 47.7452 9.86719 48.3077 9.55469C48.878 9.24219 49.546 9.08594 50.3116 9.08594C51.1163 9.08594 51.8233 9.23828 52.4327 9.54297C53.0499 9.84766 53.5655 10.2852 53.9796 10.8555C54.4015 11.4258 54.7179 12.1055 54.9288 12.8945C55.1476 13.6836 55.2569 14.5586 55.2569 15.5195ZM51.8702 15.7656V15.5195C51.8702 14.9805 51.8233 14.4844 51.7296 14.0312C51.6437 13.5703 51.503 13.168 51.3077 12.8242C51.1202 12.4805 50.8702 12.2148 50.5577 12.0273C50.253 11.832 49.8819 11.7344 49.4444 11.7344C48.9835 11.7344 48.589 11.8086 48.2608 11.957C47.9405 12.1055 47.6788 12.3203 47.4757 12.6016C47.2726 12.8828 47.1202 13.2188 47.0187 13.6094C46.9171 14 46.8546 14.4414 46.8312 14.9336V16.5625C46.8702 17.1406 46.9796 17.6602 47.1593 18.1211C47.339 18.5742 47.6163 18.9336 47.9913 19.1992C48.3663 19.4648 48.8585 19.5977 49.4679 19.5977C49.9132 19.5977 50.2882 19.5 50.5929 19.3047C50.8976 19.1016 51.1437 18.8242 51.3312 18.4727C51.5265 18.1211 51.6632 17.7148 51.7413 17.2539C51.8272 16.793 51.8702 16.2969 51.8702 15.7656ZM61.9296 11.7578V26.875H58.5546V9.32031H61.6835L61.9296 11.7578ZM69.9569 15.5195V15.7656C69.9569 16.6875 69.8476 17.543 69.6288 18.332C69.4179 19.1211 69.1054 19.8086 68.6913 20.3945C68.2772 20.9727 67.7616 21.4258 67.1444 21.7539C66.5351 22.0742 65.8319 22.2344 65.0351 22.2344C64.2616 22.2344 63.5897 22.0781 63.0194 21.7656C62.4491 21.4531 61.9687 21.0156 61.578 20.4531C61.1952 19.8828 60.8866 19.2227 60.6522 18.4727C60.4179 17.7227 60.2382 16.918 60.1132 16.0586V15.4141C60.2382 14.4922 60.4179 13.6484 60.6522 12.8828C60.8866 12.1094 61.1952 11.4414 61.578 10.8789C61.9687 10.3086 62.4452 9.86719 63.0077 9.55469C63.578 9.24219 64.246 9.08594 65.0116 9.08594C65.8163 9.08594 66.5233 9.23828 67.1327 9.54297C67.7499 9.84766 68.2655 10.2852 68.6796 10.8555C69.1015 11.4258 69.4179 12.1055 69.6288 12.8945C69.8476 13.6836 69.9569 14.5586 69.9569 15.5195ZM66.5702 15.7656V15.5195C66.5702 14.9805 66.5233 14.4844 66.4296 14.0312C66.3437 13.5703 66.203 13.168 66.0077 12.8242C65.8202 12.4805 65.5702 12.2148 65.2577 12.0273C64.953 11.832 64.5819 11.7344 64.1444 11.7344C63.6835 11.7344 63.289 11.8086 62.9608 11.957C62.6405 12.1055 62.3788 12.3203 62.1757 12.6016C61.9726 12.8828 61.8202 13.2188 61.7187 13.6094C61.6171 14 61.5546 14.4414 61.5312 14.9336V16.5625C61.5702 17.1406 61.6796 17.6602 61.8593 18.1211C62.039 18.5742 62.3163 18.9336 62.6913 19.1992C63.0663 19.4648 63.5585 19.5977 64.1679 19.5977C64.6132 19.5977 64.9882 19.5 65.2929 19.3047C65.5976 19.1016 65.8437 18.8242 66.0312 18.4727C66.2265 18.1211 66.3632 17.7148 66.4413 17.2539C66.5272 16.793 66.5702 16.2969 66.5702 15.7656ZM76.8171 4V22H73.4304V4H76.8171ZM86.6421 22.2344C85.6577 22.2344 84.7749 22.0781 83.9937 21.7656C83.2124 21.4453 82.5483 21.0039 82.0015 20.4414C81.4624 19.8789 81.0483 19.2266 80.7593 18.4844C80.4702 17.7344 80.3257 16.9375 80.3257 16.0938V15.625C80.3257 14.6641 80.4624 13.7852 80.7358 12.9883C81.0093 12.1914 81.3999 11.5 81.9077 10.9141C82.4233 10.3281 83.0483 9.87891 83.7827 9.56641C84.5171 9.24609 85.3452 9.08594 86.2671 9.08594C87.1655 9.08594 87.9624 9.23438 88.6577 9.53125C89.353 9.82812 89.9351 10.25 90.4038 10.7969C90.8804 11.3438 91.2397 12 91.4819 12.7656C91.7241 13.5234 91.8452 14.3672 91.8452 15.2969V16.7031H81.7671V14.4531H88.5288V14.1953C88.5288 13.7266 88.4429 13.3086 88.271 12.9414C88.1069 12.5664 87.8569 12.2695 87.521 12.0508C87.1851 11.832 86.7554 11.7227 86.2319 11.7227C85.7866 11.7227 85.4038 11.8203 85.0835 12.0156C84.7632 12.2109 84.5015 12.4844 84.2983 12.8359C84.103 13.1875 83.9546 13.6016 83.853 14.0781C83.7593 14.5469 83.7124 15.0625 83.7124 15.625V16.0938C83.7124 16.6016 83.7827 17.0703 83.9233 17.5C84.0718 17.9297 84.2788 18.3008 84.5444 18.6133C84.8179 18.9258 85.146 19.168 85.5288 19.3398C85.9194 19.5117 86.3608 19.5977 86.853 19.5977C87.4624 19.5977 88.0288 19.4805 88.5522 19.2461C89.0835 19.0039 89.5405 18.6406 89.9233 18.1562L91.564 19.9375C91.2983 20.3203 90.9351 20.6875 90.4741 21.0391C90.021 21.3906 89.4741 21.6797 88.8335 21.9062C88.1929 22.125 87.4624 22.2344 86.6421 22.2344ZM95.1311 20.3711C95.1311 19.8711 95.303 19.4531 95.6468 19.1172C95.9983 18.7812 96.4632 18.6133 97.0413 18.6133C97.6194 18.6133 98.0804 18.7812 98.4241 19.1172C98.7757 19.4531 98.9515 19.8711 98.9515 20.3711C98.9515 20.8711 98.7757 21.2891 98.4241 21.625C98.0804 21.9609 97.6194 22.1289 97.0413 22.1289C96.4632 22.1289 95.9983 21.9609 95.6468 21.625C95.303 21.2891 95.1311 20.8711 95.1311 20.3711ZM108.366 19.5977C108.78 19.5977 109.148 19.5195 109.468 19.3633C109.788 19.1992 110.038 18.9727 110.218 18.6836C110.405 18.3867 110.503 18.0391 110.511 17.6406H113.687C113.679 18.5312 113.441 19.3242 112.972 20.0195C112.503 20.707 111.874 21.25 111.085 21.6484C110.296 22.0391 109.413 22.2344 108.437 22.2344C107.452 22.2344 106.593 22.0703 105.858 21.7422C105.132 21.4141 104.526 20.9609 104.042 20.3828C103.558 19.7969 103.194 19.1172 102.952 18.3438C102.71 17.5625 102.589 16.7266 102.589 15.8359V15.4961C102.589 14.5977 102.71 13.7617 102.952 12.9883C103.194 12.207 103.558 11.5273 104.042 10.9492C104.526 10.3633 105.132 9.90625 105.858 9.57812C106.585 9.25 107.437 9.08594 108.413 9.08594C109.452 9.08594 110.362 9.28516 111.144 9.68359C111.933 10.082 112.55 10.6523 112.995 11.3945C113.448 12.1289 113.679 13 113.687 14.0078H110.511C110.503 13.5859 110.413 13.2031 110.241 12.8594C110.077 12.5156 109.835 12.2422 109.515 12.0391C109.202 11.8281 108.816 11.7227 108.355 11.7227C107.862 11.7227 107.46 11.8281 107.148 12.0391C106.835 12.2422 106.593 12.5234 106.421 12.8828C106.249 13.2344 106.128 13.6367 106.058 14.0898C105.995 14.5352 105.964 15.0039 105.964 15.4961V15.8359C105.964 16.3281 105.995 16.8008 106.058 17.2539C106.12 17.707 106.237 18.1094 106.409 18.4609C106.589 18.8125 106.835 19.0898 107.148 19.293C107.46 19.4961 107.866 19.5977 108.366 19.5977ZM123.687 19.1406V13.4922C123.687 13.0859 123.621 12.7383 123.488 12.4492C123.355 12.1523 123.148 11.9219 122.867 11.7578C122.594 11.5938 122.238 11.5117 121.801 11.5117C121.426 11.5117 121.101 11.5781 120.828 11.7109C120.555 11.8359 120.344 12.0195 120.195 12.2617C120.047 12.4961 119.973 12.7734 119.973 13.0938H116.598C116.598 12.5547 116.723 12.043 116.973 11.5586C117.223 11.0742 117.586 10.6484 118.062 10.2812C118.539 9.90625 119.105 9.61328 119.762 9.40234C120.426 9.19141 121.168 9.08594 121.988 9.08594C122.973 9.08594 123.848 9.25 124.613 9.57812C125.379 9.90625 125.98 10.3984 126.418 11.0547C126.863 11.7109 127.086 12.5312 127.086 13.5156V18.9414C127.086 19.6367 127.129 20.207 127.215 20.6523C127.301 21.0898 127.426 21.4727 127.59 21.8008V22H124.18C124.016 21.6562 123.891 21.2266 123.805 20.7109C123.726 20.1875 123.687 19.6641 123.687 19.1406ZM124.133 14.2773L124.156 16.1875H122.269C121.824 16.1875 121.437 16.2383 121.109 16.3398C120.781 16.4414 120.512 16.5859 120.301 16.7734C120.09 16.9531 119.933 17.1641 119.832 17.4062C119.738 17.6484 119.691 17.9141 119.691 18.2031C119.691 18.4922 119.758 18.7539 119.891 18.9883C120.023 19.2148 120.215 19.3945 120.465 19.5273C120.715 19.6523 121.008 19.7148 121.344 19.7148C121.851 19.7148 122.293 19.6133 122.668 19.4102C123.043 19.207 123.332 18.957 123.535 18.6602C123.746 18.3633 123.855 18.082 123.863 17.8164L124.754 19.2461C124.629 19.5664 124.457 19.8984 124.238 20.2422C124.027 20.5859 123.758 20.9102 123.43 21.2148C123.101 21.5117 122.707 21.7578 122.246 21.9531C121.785 22.1406 121.238 22.2344 120.605 22.2344C119.801 22.2344 119.07 22.0742 118.414 21.7539C117.766 21.4258 117.25 20.9766 116.867 20.4062C116.492 19.8281 116.305 19.1719 116.305 18.4375C116.305 17.7734 116.43 17.1836 116.68 16.668C116.93 16.1523 117.297 15.7188 117.781 15.3672C118.273 15.0078 118.887 14.7383 119.621 14.5586C120.355 14.3711 121.207 14.2773 122.176 14.2773H124.133ZM137.743 18.4961C137.743 18.2539 137.673 18.0352 137.532 17.8398C137.391 17.6445 137.13 17.4648 136.747 17.3008C136.372 17.1289 135.829 16.9727 135.118 16.832C134.477 16.6914 133.88 16.5156 133.325 16.3047C132.778 16.0859 132.301 15.8242 131.895 15.5195C131.497 15.2148 131.184 14.8555 130.958 14.4414C130.731 14.0195 130.618 13.5391 130.618 13C130.618 12.4688 130.731 11.9688 130.958 11.5C131.192 11.0312 131.524 10.6172 131.954 10.2578C132.391 9.89062 132.923 9.60547 133.548 9.40234C134.18 9.19141 134.891 9.08594 135.68 9.08594C136.782 9.08594 137.727 9.26172 138.516 9.61328C139.313 9.96484 139.923 10.4492 140.344 11.0664C140.774 11.6758 140.989 12.3711 140.989 13.1523H137.614C137.614 12.8242 137.544 12.5312 137.403 12.2734C137.27 12.0078 137.059 11.8008 136.77 11.6523C136.489 11.4961 136.122 11.418 135.669 11.418C135.294 11.418 134.969 11.4844 134.696 11.6172C134.423 11.7422 134.212 11.9141 134.063 12.1328C133.923 12.3438 133.852 12.5781 133.852 12.8359C133.852 13.0312 133.891 13.207 133.969 13.3633C134.055 13.5117 134.192 13.6484 134.38 13.7734C134.567 13.8984 134.809 14.0156 135.106 14.125C135.411 14.2266 135.786 14.3203 136.231 14.4062C137.145 14.5938 137.962 14.8398 138.68 15.1445C139.399 15.4414 139.969 15.8477 140.391 16.3633C140.813 16.8711 141.024 17.5391 141.024 18.3672C141.024 18.9297 140.899 19.4453 140.649 19.9141C140.399 20.3828 140.04 20.793 139.571 21.1445C139.102 21.4883 138.54 21.7578 137.883 21.9531C137.235 22.1406 136.505 22.2344 135.692 22.2344C134.512 22.2344 133.512 22.0234 132.692 21.6016C131.88 21.1797 131.262 20.6445 130.841 19.9961C130.426 19.3398 130.219 18.668 130.219 17.9805H133.419C133.434 18.4414 133.551 18.8125 133.77 19.0938C133.997 19.375 134.282 19.5781 134.626 19.7031C134.977 19.8281 135.356 19.8906 135.762 19.8906C136.2 19.8906 136.563 19.832 136.852 19.7148C137.141 19.5898 137.36 19.4258 137.508 19.2227C137.665 19.0117 137.743 18.7695 137.743 18.4961ZM147.978 9.32031V22H144.591V9.32031H147.978ZM144.38 6.01562C144.38 5.52344 144.552 5.11719 144.896 4.79688C145.24 4.47656 145.701 4.31641 146.279 4.31641C146.849 4.31641 147.306 4.47656 147.65 4.79688C148.001 5.11719 148.177 5.52344 148.177 6.01562C148.177 6.50781 148.001 6.91406 147.65 7.23438C147.306 7.55469 146.849 7.71484 146.279 7.71484C145.701 7.71484 145.24 7.55469 144.896 7.23438C144.552 6.91406 144.38 6.50781 144.38 6.01562ZM155.272 12.0273V22H151.897V9.32031H155.061L155.272 12.0273ZM154.78 15.2148H153.866C153.866 14.2773 153.987 13.4336 154.229 12.6836C154.471 11.9258 154.811 11.2812 155.248 10.75C155.686 10.2109 156.205 9.80078 156.807 9.51953C157.416 9.23047 158.096 9.08594 158.846 9.08594C159.44 9.08594 159.983 9.17188 160.475 9.34375C160.967 9.51562 161.389 9.78906 161.741 10.1641C162.1 10.5391 162.373 11.0352 162.561 11.6523C162.756 12.2695 162.854 13.0234 162.854 13.9141V22H159.455V13.9023C159.455 13.3398 159.377 12.9023 159.221 12.5898C159.065 12.2773 158.834 12.0586 158.53 11.9336C158.233 11.8008 157.866 11.7344 157.428 11.7344C156.975 11.7344 156.58 11.8242 156.244 12.0039C155.916 12.1836 155.643 12.4336 155.424 12.7539C155.213 13.0664 155.053 13.4336 154.944 13.8555C154.834 14.2773 154.78 14.7305 154.78 15.2148ZM166.081 15.7891V15.543C166.081 14.6133 166.214 13.7578 166.48 12.9766C166.745 12.1875 167.132 11.5039 167.64 10.9258C168.148 10.3477 168.773 9.89844 169.515 9.57812C170.257 9.25 171.108 9.08594 172.069 9.08594C173.03 9.08594 173.886 9.25 174.636 9.57812C175.386 9.89844 176.015 10.3477 176.523 10.9258C177.038 11.5039 177.429 12.1875 177.694 12.9766C177.96 13.7578 178.093 14.6133 178.093 15.543V15.7891C178.093 16.7109 177.96 17.5664 177.694 18.3555C177.429 19.1367 177.038 19.8203 176.523 20.4062C176.015 20.9844 175.39 21.4336 174.648 21.7539C173.905 22.0742 173.054 22.2344 172.093 22.2344C171.132 22.2344 170.276 22.0742 169.526 21.7539C168.784 21.4336 168.155 20.9844 167.64 20.4062C167.132 19.8203 166.745 19.1367 166.48 18.3555C166.214 17.5664 166.081 16.7109 166.081 15.7891ZM169.456 15.543V15.7891C169.456 16.3203 169.503 16.8164 169.597 17.2773C169.691 17.7383 169.839 18.1445 170.042 18.4961C170.253 18.8398 170.526 19.1094 170.862 19.3047C171.198 19.5 171.608 19.5977 172.093 19.5977C172.562 19.5977 172.964 19.5 173.3 19.3047C173.636 19.1094 173.905 18.8398 174.108 18.4961C174.312 18.1445 174.46 17.7383 174.554 17.2773C174.655 16.8164 174.706 16.3203 174.706 15.7891V15.543C174.706 15.0273 174.655 14.543 174.554 14.0898C174.46 13.6289 174.308 13.2227 174.097 12.8711C173.894 12.5117 173.624 12.2305 173.288 12.0273C172.952 11.8242 172.546 11.7227 172.069 11.7227C171.593 11.7227 171.187 11.8242 170.851 12.0273C170.523 12.2305 170.253 12.5117 170.042 12.8711C169.839 13.2227 169.691 13.6289 169.597 14.0898C169.503 14.543 169.456 15.0273 169.456 15.543Z" fill="#FAFAFA"/>
</svg>
